<svg width="64" height="64" viewBox="0 0 64 64" fill="none" xmlns="http://www.w3.org/2000/svg">
<rect width="64" height="64" rx="8" fill="#00D395"/>
<path d="M32 64C49.6731 64 64 49.6731 64 32C64 14.3269 49.6731 0 32 0C14.3269 0 0 14.3269 0 32C0 49.6731 14.3269 64 32 64Z" fill="#00D395"/>
<path fill-rule="evenodd" clip-rule="evenodd" d="M17.14 43.174C16.6429 42.8801 16.2305 42.4622 15.943 41.9613C15.6556 41.4604 15.5029 40.8935 15.5 40.316V33.81C15.5 33.036 16.144 32.41 16.932 32.414C17.184 32.414 17.432 32.48 17.652 32.604L32.658 41.166C33.536 41.666 34.078 42.586 34.078 43.58V50.32C34.0767 50.5428 34.0314 50.7631 33.9446 50.9683C33.8578 51.1735 33.7313 51.3595 33.5724 51.5157C33.4135 51.6718 33.2253 51.795 33.0186 51.8781C32.8119 51.9612 32.5908 52.0026 32.368 52C32.0514 52.0002 31.7405 51.9152 31.468 51.754L17.14 43.174ZM39.51 30.822C39.5095 30.822 39.5093 30.8227 39.5097 30.823C40.3887 31.3232 40.924 32.2447 40.928 33.236V46.916C40.928 47.32 40.708 47.694 40.346 47.89L37.062 49.698C36.9981 49.7336 36.928 49.6803 36.928 49.6072V42.156C36.928 41.172 36.402 40.26 35.536 39.756L26.3173 34.3574C23.8662 32.922 22.36 30.2945 22.36 27.4541V23.466C22.36 22.692 23.004 22.066 23.794 22.07C24.0457 22.0704 24.293 22.1358 24.512 22.26L39.5103 30.821C39.5107 30.8213 39.5105 30.822 39.51 30.822ZM46.078 20.718C46.958 21.218 47.5 22.138 47.5 23.136V43.116C47.4975 43.319 47.4403 43.5176 47.3343 43.6908C47.2283 43.864 47.0776 44.0053 46.898 44.1C45.4846 44.8471 43.784 43.8224 43.784 42.2237V31.834C43.784 30.852 43.256 29.942 42.398 29.436L32.877 23.8486C30.4294 22.4123 28.926 19.7868 28.926 16.949V13.4C28.926 13.152 28.996 12.91 29.118 12.696C29.3141 12.3743 29.6278 12.1416 29.9925 12.0472C30.3572 11.9527 30.7444 12.004 31.072 12.19L46.078 20.718Z" fill="white"/>
</svg>
