<svg width="50" height="50" viewBox="0 0 50 50" fill="none" xmlns="http://www.w3.org/2000/svg">
<rect width="50" height="50" rx="25" fill="black"/>
<path d="M21.0257 20.9998C20.8895 19.2341 21.2975 17.4691 22.1948 15.9423C23.0921 14.4155 24.4356 13.2002 26.0445 12.4601C27.6534 11.7199 29.4504 11.4904 31.1936 11.8024C32.9369 12.1144 34.5427 12.953 35.7949 14.2052C37.0472 15.4575 37.8858 17.0633 38.1978 18.8066C38.5098 20.5498 38.2803 22.3468 37.5401 23.9557C36.7999 25.5645 35.5847 26.908 34.0579 27.8053C32.5311 28.7026 30.766 29.1107 29.0003 28.9745" stroke="white" stroke-linecap="round" stroke-linejoin="round"/>
<path d="M38.3337 31.6665C38.3337 32.7274 37.9122 33.7448 37.1621 34.4949C36.4119 35.2451 35.3945 35.6665 34.3337 35.6665H31.667M31.667 35.6665L34.3337 32.9998M31.667 35.6665L34.3337 38.3332M11.667 18.3332C11.667 17.2723 12.0884 16.2549 12.8386 15.5047C13.5887 14.7546 14.6061 14.3332 15.667 14.3332H18.3337M18.3337 14.3332L15.667 16.9998M18.3337 14.3332L15.667 11.6665M20.3337 38.3332C18.0351 38.3332 15.8307 37.4201 14.2054 35.7948C12.5801 34.1694 11.667 31.965 11.667 29.6665C11.667 27.368 12.5801 25.1636 14.2054 23.5382C15.8307 21.9129 18.0351 20.9998 20.3337 20.9998C22.6322 20.9998 24.8366 21.9129 26.4619 23.5382C28.0872 25.1636 29.0003 27.368 29.0003 29.6665C29.0003 31.965 28.0872 34.1694 26.4619 35.7948C24.8366 37.4201 22.6322 38.3332 20.3337 38.3332Z" stroke="white" stroke-linecap="round" stroke-linejoin="round"/>
</svg>
