<svg width="183" height="39" viewBox="0 0 183 39" fill="none" xmlns="http://www.w3.org/2000/svg">
<path d="M11 36C11.4651 36 12.6279 34.3529 13.093 33.6471C13.4651 33.0824 15.1085 31.8431 15.8837 31.2941H18.907C19.062 31.6863 19.5116 32.2353 20.0698 31.2941C20.6279 30.3529 22.7829 27.7647 23.7907 26.5882L27.0465 24.2353L30.0698 23.2941L32.3953 21.6471L37.0465 20.3176C37.5116 19.847 38.2558 18.9647 39.3721 19.5294C40.7674 20.2353 43.093 20.2352 43.7907 20.9411C44.3488 21.5059 46.3488 21.9607 47.2791 22.1176H48.6744C49.1395 22.1961 50.2558 22.2118 51 21.6471C51.7442 21.0823 53.1705 20 53.7907 19.5294H57.5116C58.2093 20.0785 59.7442 21.2706 60.3023 21.6471C61 22.1176 62.3954 22.3529 63.3256 23.2941C64.2558 24.2353 66.1163 23.5295 66.5814 24.2353C67.0465 24.9411 69.3721 23.5295 70.0698 24.2353C70.7674 24.9411 71.2326 24.9411 72.6279 25.1764C73.7442 25.3646 77.124 24.6274 78.6744 24.2353L79.6047 22.1176L82.6279 19.9999L84.9535 17.8823H90.5349L93.5581 15.2941L95.4186 12.9411L99.1395 8.94112L100.767 7.99995H104.023L109.372 11.7647C109.992 11.9999 111.465 12.7529 112.395 13.8823C113.326 15.0117 116.039 16.0784 117.279 16.4705C119.062 16.9411 122.721 17.7411 123.093 17.1764C123.558 16.4705 127.744 15.2941 128.907 15.2941C130.07 15.2941 130.767 16.7058 132.163 15.2941C133.279 14.1647 136.349 13.2548 137.744 12.9411C137.899 12.7843 138.395 12.3294 139.14 11.7647C140.07 11.0588 142.395 9.8823 143.791 8.94112C144.907 8.18818 146.891 6.58818 147.744 5.8823C148.985 5.33328 151.558 4.32936 151.93 4.70583C152.302 5.0823 154.101 6.43135 154.953 7.05882C155.806 6.98041 157.605 6.72945 157.977 6.35294C158.442 5.8823 159.837 4.70583 161 4.70583C161.93 4.70583 163.868 4.23528 164.721 4L167.279 4.70583C167.589 4.70583 168.349 4.70583 168.907 4.70583C169.465 4.70583 170.535 4.23528 171 4" stroke="url(#paint0_linear_2006_250)" stroke-linecap="round" stroke-linejoin="round"/>
<defs>
<linearGradient id="paint0_linear_2006_250" x1="11" y1="20" x2="171" y2="20" gradientUnits="userSpaceOnUse">
<stop stop-color="#E2EEE9"/>
<stop offset="1" stop-color="#2C8257"/>
</linearGradient>
</defs>
</svg>
