<svg width="183" height="39" viewBox="0 0 183 39" fill="none" xmlns="http://www.w3.org/2000/svg">
<path d="M14 33H21.2147L24.2402 29.965L27.7312 33H31.2222L33.7823 29.965C33.9374 29.109 34.4339 27.4903 35.1787 27.8638C35.9234 28.2374 37.8163 29.4203 38.6697 29.965H39.8333L44.7207 27.8638H46.3498H52.1682L53.3318 29.965L56.8228 27.8638L59.1501 25.2957L64.503 21.3268L71.0195 17.8249L81.2598 15.7237H88.7072C89.3278 16.502 90.6622 18.3852 91.0345 19.6926C91.4069 21 94.9134 22.8832 96.6201 23.6614L99.6456 25.2957H102.438L106.628 21.3268C106.938 20.1595 107.652 17.8249 108.024 17.8249C108.396 17.8249 109.42 17.0467 109.886 16.6576L115.006 14.323H118.032C118.962 13.8561 120.964 12.7354 121.523 11.9884C122.081 11.2413 123.307 9.96503 123.85 9.42029L129.203 6.61875H134.788C135.409 6.15183 136.836 5.49813 137.581 6.61875C138.512 8.01952 140.374 9.42029 140.839 9.42029C141.212 9.42029 142.391 11.1323 142.934 11.9884C143.244 11.8327 144.051 11.8016 144.796 12.9222C145.541 14.0428 148.364 13.3891 149.683 12.9222C149.45 13.5448 149.311 14.5098 150.614 13.3891C152.243 11.9884 153.174 11.288 154.105 10.3541C155.036 9.42029 157.596 11.9884 158.527 11.9884C159.458 11.9884 160.156 11.5215 161.087 12.9222C162.018 14.323 163.414 15.2568 164.811 14.323C165.928 13.5759 168.069 11.3658 169 10.3541" stroke="url(#paint0_linear_2006_237)" stroke-linecap="round" stroke-linejoin="round"/>
<defs>
<linearGradient id="paint0_linear_2006_237" x1="14" y1="19.5" x2="169" y2="19.5" gradientUnits="userSpaceOnUse">
<stop stop-color="#FBEAEA"/>
<stop offset="1" stop-color="#E5676C"/>
</linearGradient>
</defs>
</svg>
