<svg width="32" height="32" viewBox="0 0 32 32" fill="none" xmlns="http://www.w3.org/2000/svg">
<path fill-rule="evenodd" clip-rule="evenodd" d="M15.9996 1.97998C15.1223 1.97998 14.3596 2.54131 12.8356 3.66531L10.5409 5.35731C10.3009 5.53465 10.1809 5.62265 10.0516 5.69731C9.92228 5.77198 9.78495 5.83065 9.51161 5.95065L6.89961 7.09198C5.16361 7.85198 4.29561 8.23065 3.85694 8.98931C3.41961 9.74931 3.52361 10.6906 3.73561 12.5733L4.05294 15.4066C4.08628 15.7026 4.10228 15.8506 4.10228 16C4.10228 16.1493 4.08628 16.2973 4.05294 16.5933L3.73561 19.4266C3.52494 21.3093 3.41961 22.2506 3.85694 23.0106C4.29694 23.7706 5.16361 24.1493 6.89961 24.908L9.51295 26.0493C9.78495 26.1693 9.92228 26.228 10.0516 26.3026C10.1796 26.3773 10.3009 26.4653 10.5409 26.6426L12.8343 28.3346C14.3609 29.4586 15.1236 30.02 15.9996 30.02C16.8756 30.02 17.6396 29.4586 19.1636 28.3346L21.4583 26.6426C21.6983 26.4653 21.8183 26.3773 21.9476 26.3026C22.0769 26.228 22.2143 26.1693 22.4876 26.0493L25.0996 24.908C26.8356 24.148 27.7036 23.7693 28.1423 23.0106C28.5796 22.2506 28.4756 21.3093 28.2623 19.4266L27.9463 16.5933C27.9129 16.2973 27.8956 16.1493 27.8956 16C27.8956 15.8506 27.9129 15.7026 27.9463 15.4066L28.2636 12.5733C28.4743 10.6906 28.5796 9.74931 28.1423 8.98931C27.7023 8.22931 26.8356 7.85065 25.0996 7.09198L22.4863 5.95065C22.3023 5.87598 22.1225 5.79141 21.9476 5.69731C21.7785 5.59289 21.6151 5.47939 21.4583 5.35731L19.1649 3.66531C17.6369 2.54131 16.8743 1.97998 15.9996 1.97998ZM15.9996 21.3333C17.4141 21.3333 18.7707 20.7714 19.7708 19.7712C20.771 18.771 21.3329 17.4145 21.3329 16C21.3329 14.5855 20.771 13.2289 19.7708 12.2287C18.7707 11.2285 17.4141 10.6666 15.9996 10.6666C14.5851 10.6666 13.2286 11.2285 12.2284 12.2287C11.2282 13.2289 10.6663 14.5855 10.6663 16C10.6663 17.4145 11.2282 18.771 12.2284 19.7712C13.2286 20.7714 14.5851 21.3333 15.9996 21.3333Z" fill="#FAFAFA"/>
</svg>
