<svg width="32" height="33" viewBox="0 0 32 33" fill="none" xmlns="http://www.w3.org/2000/svg">
<g clip-path="url(#clip0_2006_245)">
<path d="M19.8213 26.2933C19.9981 26.5996 20.046 26.9635 19.9545 27.3051C19.863 27.6466 19.6395 27.9378 19.3333 28.1147L17.6666 29.0773C17.1599 29.3699 16.5851 29.5239 16 29.5239C15.4149 29.5239 14.84 29.3699 14.3333 29.0773L12.6666 28.1133C12.3629 27.9353 12.1419 27.6443 12.0519 27.3039C11.9619 26.9635 12.0102 26.6013 12.1863 26.2964C12.3623 25.9915 12.6518 25.7686 12.9916 25.6763C13.3314 25.5841 13.6939 25.63 14 25.804L15.6666 26.7667C15.768 26.8252 15.883 26.856 16 26.856C16.117 26.856 16.232 26.8252 16.3333 26.7667L18 25.804C18.3062 25.6272 18.6701 25.5793 19.0117 25.6708C19.3533 25.7623 19.6445 25.9871 19.8213 26.2933ZM26.392 15.3253C26.7456 15.3253 27.0847 15.4658 27.3348 15.7158C27.5848 15.9659 27.7253 16.305 27.7253 16.6587V21.3453C27.7253 21.9304 27.5713 22.5052 27.2787 23.0119C26.9862 23.5187 26.5654 23.9394 26.0587 24.232L22 26.576C21.8483 26.6635 21.6808 26.7203 21.5071 26.7432C21.3334 26.766 21.157 26.7544 20.9878 26.709C20.8186 26.6636 20.66 26.5854 20.521 26.4787C20.3821 26.372 20.2655 26.239 20.178 26.0873C20.0904 25.9356 20.0336 25.7681 20.0108 25.5944C19.988 25.4208 19.9996 25.2443 20.045 25.0751C20.0903 24.9059 20.1686 24.7473 20.2753 24.6084C20.3819 24.4694 20.5149 24.3529 20.6666 24.2653L24.7253 21.9227C24.8267 21.8641 24.9108 21.78 24.9693 21.6786C25.0278 21.5773 25.0586 21.4623 25.0587 21.3453V16.6587C25.0587 16.305 25.1991 15.9659 25.4492 15.7158C25.6992 15.4658 26.0384 15.3253 26.392 15.3253ZM5.60798 15.3253C5.9616 15.3253 6.30074 15.4658 6.55079 15.7158C6.80084 15.9659 6.94132 16.305 6.94132 16.6587V21.3453C6.94132 21.4623 6.97212 21.5773 7.03064 21.6786C7.08915 21.78 7.17331 21.8641 7.27465 21.9227L11.3333 24.2653C11.6371 24.4434 11.858 24.7344 11.948 25.0748C12.038 25.4152 11.9897 25.7773 11.8137 26.0823C11.6376 26.3872 11.3481 26.6101 11.0083 26.7023C10.6685 26.7946 10.3061 26.7487 9.99998 26.5747L5.94132 24.2333C5.4346 23.9408 5.01381 23.52 4.72125 23.0133C4.42869 22.5066 4.27466 21.9318 4.27465 21.3467V16.66C4.27465 16.3064 4.41512 15.9672 4.66517 15.7172C4.91522 15.4671 5.25436 15.3253 5.60798 15.3253ZM20.8333 10.452L20.9907 10.5293L23.0093 11.6733C23.1923 11.7772 23.3481 11.923 23.464 12.0986C23.5798 12.2743 23.6525 12.4749 23.676 12.684L23.684 12.844L23.6666 15.164C23.6649 15.3696 23.6156 15.5721 23.5226 15.7555C23.4296 15.9389 23.2955 16.0984 23.1306 16.2213L23 16.308L19.3333 18.424V22.66C19.3332 22.866 19.2853 23.0691 19.1934 23.2535C19.1016 23.4379 18.9683 23.5984 18.804 23.7227L18.6746 23.8107L16.6746 24.984C16.4962 25.0887 16.2958 25.1504 16.0894 25.1643C15.883 25.1782 15.6762 25.1438 15.4853 25.064L15.3253 24.984L13.3253 23.8107C13.1476 23.7063 12.9964 23.5622 12.8838 23.3896C12.7711 23.217 12.7 23.0207 12.676 22.816L12.6666 22.66V18.424L8.99998 16.308C8.82166 16.205 8.66963 16.062 8.55581 15.8904C8.44199 15.7187 8.36949 15.523 8.34398 15.3187L8.33332 15.1627L8.31598 12.8427C8.31461 12.6325 8.36294 12.425 8.45701 12.2371C8.55109 12.0492 8.68825 11.8862 8.85732 11.7613L8.99065 11.6733L11.008 10.5293C11.1843 10.4291 11.3811 10.3704 11.5835 10.3577C11.7859 10.345 11.9885 10.3786 12.176 10.456L12.3333 10.5333L16 12.6507L19.6666 10.5333C19.8423 10.4322 20.0386 10.3725 20.2407 10.3586C20.4429 10.3447 20.6456 10.3771 20.8333 10.4533V10.452ZM20.34 13.2253L16.6666 15.3453C16.4899 15.4475 16.2921 15.5077 16.0885 15.5213C15.8848 15.535 15.6807 15.5017 15.492 15.424L15.332 15.344L11.6613 13.224L10.988 13.6067L10.9946 14.38L14.6666 16.5C14.8462 16.6037 14.9991 16.7478 15.1132 16.9209C15.2274 17.0941 15.2995 17.2914 15.324 17.4973L15.3333 17.6547V21.896L16 22.288L16.6666 21.896V17.6547C16.6666 17.4473 16.7149 17.2428 16.8077 17.0574C16.9005 16.872 17.0353 16.7108 17.2013 16.5867L17.3333 16.5L21.0053 14.38L21.012 13.6067L20.3386 13.2253H20.34ZM23.496 18.104L23.5053 18.1933V20.0627C23.5056 20.2702 23.4574 20.475 23.3646 20.6606C23.2717 20.8463 23.1369 21.0077 22.9706 21.132L22.8386 21.2187L21.2186 22.1533C21.1644 22.1848 21.1035 22.203 21.0409 22.2066C20.9783 22.2102 20.9157 22.199 20.8583 22.174C20.8008 22.1489 20.75 22.1107 20.71 22.0624C20.67 22.0142 20.6419 21.9571 20.628 21.896L20.6186 21.8067V19.936C20.6188 19.7289 20.6672 19.5247 20.76 19.3395C20.8528 19.1544 20.9875 18.9934 21.1533 18.8693L21.2866 18.7813L22.9053 17.8467C22.9596 17.8152 23.0204 17.7969 23.083 17.7934C23.1457 17.7898 23.2082 17.8009 23.2657 17.826C23.3232 17.851 23.374 17.8892 23.414 17.9375C23.454 17.9858 23.4821 18.0428 23.496 18.104ZM9.09332 17.8467L10.7133 18.7813C10.916 18.8983 11.0843 19.0667 11.2013 19.2693C11.3184 19.472 11.38 19.7019 11.38 19.936V21.8067C11.38 21.8769 11.3616 21.9459 11.3265 22.0067C11.2914 22.0676 11.2409 22.1181 11.1801 22.1533C11.1193 22.1884 11.0503 22.2069 10.98 22.2069C10.9098 22.2069 10.8408 22.1884 10.78 22.1533L9.15998 21.22C8.9571 21.1029 8.78866 20.9343 8.67162 20.7314C8.55459 20.5285 8.49309 20.2983 8.49332 20.064V18.1933C8.49327 18.1231 8.51172 18.0541 8.54681 17.9932C8.5819 17.9324 8.63239 17.8819 8.6932 17.8467C8.75402 17.8116 8.82302 17.7931 8.89325 17.7931C8.96349 17.7931 9.03249 17.8115 9.09332 17.8467ZM24.3306 7.77066L26.0573 8.76799C26.564 9.06054 26.9848 9.48132 27.2774 9.98804C27.5699 10.4948 27.724 11.0695 27.724 11.6547V13.5787C27.724 13.9323 27.5835 14.2714 27.3335 14.5215C27.0834 14.7715 26.7443 14.912 26.3906 14.912C26.037 14.912 25.6979 14.7715 25.4478 14.5215C25.1978 14.2714 25.0573 13.9323 25.0573 13.5787V11.6547C25.0573 11.5376 25.0265 11.4227 24.968 11.3213C24.9095 11.22 24.8253 11.1358 24.724 11.0773L22.9973 10.08C22.6936 9.90192 22.4726 9.61094 22.3826 9.27055C22.2926 8.93015 22.3409 8.56798 22.517 8.26306C22.693 7.95815 22.9825 7.73524 23.3223 7.64299C23.6621 7.55074 24.0246 7.59663 24.3306 7.77066ZM9.42798 8.29332C9.60479 8.59956 9.6527 8.96349 9.56118 9.30506C9.46966 9.64662 9.24621 9.93784 8.93998 10.1147L7.27332 11.0773C7.17197 11.1358 7.08781 11.22 7.0293 11.3213C6.97079 11.4227 6.93999 11.5376 6.93998 11.6547V13.5787C6.93998 13.9323 6.79951 14.2714 6.54946 14.5215C6.29941 14.7715 5.96027 14.912 5.60665 14.912C5.25303 14.912 4.91389 14.7715 4.66384 14.5215C4.41379 14.2714 4.27332 13.9323 4.27332 13.5787V11.6547C4.27323 11.0692 4.42735 10.494 4.72016 9.98705C5.01298 9.48007 5.43415 9.05915 5.94132 8.76666L7.60798 7.80399C7.91422 7.62719 8.27815 7.57927 8.61971 7.67079C8.96128 7.76231 9.2525 7.98576 9.42932 8.29199L9.42798 8.29332ZM16.6666 8.21999L18.2866 9.15466C18.3476 9.18973 18.3982 9.24024 18.4334 9.3011C18.4686 9.36196 18.4871 9.43102 18.4871 9.50132C18.4871 9.57162 18.4686 9.64069 18.4334 9.70155C18.3982 9.76241 18.3476 9.81292 18.2866 9.84799L16.6666 10.78C16.464 10.897 16.234 10.9586 16 10.9586C15.7659 10.9586 15.536 10.897 15.3333 10.78L13.7133 9.84532C13.6524 9.81025 13.6018 9.75974 13.5666 9.69888C13.5314 9.63802 13.5129 9.56896 13.5129 9.49866C13.5129 9.42835 13.5314 9.35929 13.5666 9.29843C13.6018 9.23757 13.6524 9.18706 13.7133 9.15199L15.3333 8.21999C15.536 8.10297 15.7659 8.04136 16 8.04136C16.234 8.04136 16.464 8.10297 16.6666 8.21999ZM17.6666 3.92399L21.7253 6.26666C22.0317 6.44347 22.2554 6.73476 22.347 7.07645C22.4386 7.41814 22.3908 7.78224 22.214 8.08866C22.0372 8.39507 21.7459 8.6187 21.4042 8.71034C21.0625 8.80198 20.6984 8.75413 20.392 8.57732L16.3333 6.23199C16.232 6.17348 16.117 6.14267 16 6.14267C15.883 6.14267 15.768 6.17348 15.6666 6.23199L11.608 8.57466C11.4563 8.66359 11.2885 8.72163 11.1143 8.74545C10.9401 8.76928 10.7629 8.7584 10.5929 8.71346C10.4229 8.66851 10.2634 8.59038 10.1237 8.48357C9.98406 8.37676 9.86689 8.24337 9.77896 8.09109C9.69104 7.93881 9.63411 7.77064 9.61145 7.59627C9.58878 7.4219 9.60083 7.24476 9.6469 7.07507C9.69297 6.90537 9.77216 6.74646 9.87989 6.60749C9.98763 6.46852 10.1218 6.35223 10.2746 6.26532L14.3333 3.92266C14.84 3.63009 15.4149 3.47607 16 3.47607C16.5851 3.47607 17.1599 3.63009 17.6666 3.92266V3.92399Z" fill="white"/>
</g>
<defs>
<clipPath id="clip0_2006_245">
<rect width="32" height="32" fill="white" transform="translate(0 0.5)"/>
</clipPath>
</defs>
</svg>
