<svg width="32" height="33" viewBox="0 0 32 33" fill="none" xmlns="http://www.w3.org/2000/svg">
<path d="M23.135 14.8075C23.7748 14.0285 24.2081 13.1009 24.3948 12.1103C24.5815 11.1197 24.5156 10.098 24.2032 9.1396C23.8908 8.18118 23.3419 7.31692 22.6073 6.62663C21.8727 5.93633 20.976 5.44225 20 5.19V3.5C20 3.10218 19.842 2.72064 19.5607 2.43934C19.2794 2.15804 18.8978 2 18.5 2C18.1022 2 17.7206 2.15804 17.4393 2.43934C17.158 2.72064 17 3.10218 17 3.5V5H15V3.5C15 3.10218 14.842 2.72064 14.5607 2.43934C14.2794 2.15804 13.8978 2 13.5 2C13.1022 2 12.7206 2.15804 12.4393 2.43934C12.158 2.72064 12 3.10218 12 3.5V5H9C8.60218 5 8.22064 5.15804 7.93934 5.43934C7.65804 5.72064 7.5 6.10218 7.5 6.5C7.5 6.89782 7.65804 7.27936 7.93934 7.56066C8.22064 7.84196 8.60218 8 9 8H9.5V24H9C8.60218 24 8.22064 24.158 7.93934 24.4393C7.65804 24.7206 7.5 25.1022 7.5 25.5C7.5 25.8978 7.65804 26.2794 7.93934 26.5607C8.22064 26.842 8.60218 27 9 27H12V28.5C12 28.8978 12.158 29.2794 12.4393 29.5607C12.7206 29.842 13.1022 30 13.5 30C13.8978 30 14.2794 29.842 14.5607 29.5607C14.842 29.2794 15 28.8978 15 28.5V27H17V28.5C17 28.8978 17.158 29.2794 17.4393 29.5607C17.7206 29.842 18.1022 30 18.5 30C18.8978 30 19.2794 29.842 19.5607 29.5607C19.842 29.2794 20 28.8978 20 28.5V27C21.4417 26.9994 22.8422 26.5195 23.9813 25.6359C25.1205 24.7522 25.9335 23.5149 26.2925 22.1187C26.6515 20.7224 26.5361 19.2464 25.9645 17.9229C25.393 16.5994 24.3976 15.5034 23.135 14.8075ZM21.5 11C21.5 11.7956 21.1839 12.5587 20.6213 13.1213C20.0587 13.6839 19.2956 14 18.5 14H12.5V8H18.5C19.2956 8 20.0587 8.31607 20.6213 8.87868C21.1839 9.44129 21.5 10.2044 21.5 11ZM20 24H12.5V17H20C20.9283 17 21.8185 17.3687 22.4749 18.0251C23.1313 18.6815 23.5 19.5717 23.5 20.5C23.5 21.4283 23.1313 22.3185 22.4749 22.9749C21.8185 23.6313 20.9283 24 20 24Z" fill="white"/>
</svg>
