<svg width="32" height="32" viewBox="0 0 32 32" fill="none" xmlns="http://www.w3.org/2000/svg">
<path d="M23.135 14.3075C23.7748 13.5285 24.2081 12.6009 24.3948 11.6103C24.5815 10.6197 24.5156 9.59802 24.2032 8.6396C23.8908 7.68118 23.3419 6.81692 22.6073 6.12663C21.8727 5.43633 20.976 4.94225 20 4.69V3C20 2.60218 19.842 2.22064 19.5607 1.93934C19.2794 1.65804 18.8978 1.5 18.5 1.5C18.1022 1.5 17.7206 1.65804 17.4393 1.93934C17.158 2.22064 17 2.60218 17 3V4.5H15V3C15 2.60218 14.842 2.22064 14.5607 1.93934C14.2794 1.65804 13.8978 1.5 13.5 1.5C13.1022 1.5 12.7206 1.65804 12.4393 1.93934C12.158 2.22064 12 2.60218 12 3V4.5H9C8.60218 4.5 8.22064 4.65804 7.93934 4.93934C7.65804 5.22064 7.5 5.60218 7.5 6C7.5 6.39782 7.65804 6.77936 7.93934 7.06066C8.22064 7.34196 8.60218 7.5 9 7.5H9.5V23.5H9C8.60218 23.5 8.22064 23.658 7.93934 23.9393C7.65804 24.2206 7.5 24.6022 7.5 25C7.5 25.3978 7.65804 25.7794 7.93934 26.0607C8.22064 26.342 8.60218 26.5 9 26.5H12V28C12 28.3978 12.158 28.7794 12.4393 29.0607C12.7206 29.342 13.1022 29.5 13.5 29.5C13.8978 29.5 14.2794 29.342 14.5607 29.0607C14.842 28.7794 15 28.3978 15 28V26.5H17V28C17 28.3978 17.158 28.7794 17.4393 29.0607C17.7206 29.342 18.1022 29.5 18.5 29.5C18.8978 29.5 19.2794 29.342 19.5607 29.0607C19.842 28.7794 20 28.3978 20 28V26.5C21.4417 26.4994 22.8422 26.0195 23.9813 25.1359C25.1205 24.2522 25.9335 23.0149 26.2925 21.6187C26.6515 20.2224 26.5361 18.7464 25.9645 17.4229C25.393 16.0994 24.3976 15.0034 23.135 14.3075ZM21.5 10.5C21.5 11.2956 21.1839 12.0587 20.6213 12.6213C20.0587 13.1839 19.2956 13.5 18.5 13.5H12.5V7.5H18.5C19.2956 7.5 20.0587 7.81607 20.6213 8.37868C21.1839 8.94129 21.5 9.70435 21.5 10.5ZM20 23.5H12.5V16.5H20C20.9283 16.5 21.8185 16.8687 22.4749 17.5251C23.1313 18.1815 23.5 19.0717 23.5 20C23.5 20.9283 23.1313 21.8185 22.4749 22.4749C21.8185 23.1313 20.9283 23.5 20 23.5Z" fill="white"/>
</svg>
