<svg width="24" height="24" viewBox="0 0 24 24" fill="none" xmlns="http://www.w3.org/2000/svg">
<path d="M22.5004 5.25V11.25C22.5004 11.4489 22.4214 11.6397 22.2807 11.7803C22.1401 11.921 21.9493 12 21.7504 12C21.5515 12 21.3607 11.921 21.2201 11.7803C21.0794 11.6397 21.0004 11.4489 21.0004 11.25V7.06031L13.281 14.7806C13.2114 14.8504 13.1287 14.9057 13.0376 14.9434C12.9466 14.9812 12.849 15.0006 12.7504 15.0006C12.6519 15.0006 12.5543 14.9812 12.4632 14.9434C12.3722 14.9057 12.2894 14.8504 12.2198 14.7806L9.00042 11.5603L2.78104 17.7806C2.64031 17.9214 2.44944 18.0004 2.25042 18.0004C2.05139 18.0004 1.86052 17.9214 1.71979 17.7806C1.57906 17.6399 1.5 17.449 1.5 17.25C1.5 17.051 1.57906 16.8601 1.71979 16.7194L8.46979 9.96937C8.53945 9.89964 8.62216 9.84432 8.71321 9.80658C8.80426 9.76884 8.90186 9.74941 9.00042 9.74941C9.09898 9.74941 9.19657 9.76884 9.28762 9.80658C9.37867 9.84432 9.46139 9.89964 9.53104 9.96937L12.7504 13.1897L19.9401 6H15.7504C15.5515 6 15.3607 5.92098 15.2201 5.78033C15.0794 5.63968 15.0004 5.44891 15.0004 5.25C15.0004 5.05109 15.0794 4.86032 15.2201 4.71967C15.3607 4.57902 15.5515 4.5 15.7504 4.5H21.7504C21.9493 4.5 22.1401 4.57902 22.2807 4.71967C22.4214 4.86032 22.5004 5.05109 22.5004 5.25Z" fill="#6DFFDC"/>
</svg>
